<svg version="1.1" xmlns="http://www.w3.org/2000/svg" xmlns:xlink="http://www.w3.org/1999/xlink" width="50px" height="50px" viewBox="0,0,256,256"><g transform="translate(6.4,6.4) scale(0.95,0.95)"><g fill="#fa5252" fill-rule="nonzero" stroke="none" stroke-width="1" stroke-linecap="butt" stroke-linejoin="miter" stroke-miterlimit="10" stroke-dasharray="" stroke-dashoffset="0" font-family="none" font-weight="none" font-size="none" text-anchor="none" style="mix-blend-mode: normal"><g transform="translate(-53.57248,75.43949) rotate(-30) scale(5.12,5.12)"><path d="M18.15625,2c-4.65234,0 -7.15625,4.62109 -7.15625,8.96875c0,3.44531 2.71484,10.03125 6.96875,10.03125c2.75391,0 6.03125,-1.94922 6.03125,-11.21875c0,-4.07422 -2.78906,-7.78125 -5.84375,-7.78125zM33.75,2c-5.0625,0 -7.75,5.07813 -7.75,8.75c0,2.91797 1.14844,11.25 6.25,11.25c5.03125,0 7.75,-5.89844 7.75,-11.4375c0,-5.59375 -3.63281,-8.5625 -6.25,-8.5625zM6.71875,18c-3.33594,0 -6.71875,4.87891 -6.71875,9.65625c0,3.40625 2.5625,8.34375 6.5625,8.34375c4.03516,0 6.4375,-5.25 6.4375,-10.3125c0,-3.88672 -3.11719,-7.6875 -6.28125,-7.6875zM45.09375,18c-2.60547,0.05469 -5.27344,2.375 -7.59375,6.71875c-1.61719,3.02344 -1.94141,5.91016 -0.9375,8.125c0.70313,1.55078 2.01172,2.64063 3.6875,3.03125c0.37891,0.08984 0.76953,0.125 1.15625,0.125c3.12891,0 6.20313,-2.95312 8,-7.71875c0.92578,-2.46875 0.75391,-5.60156 -0.40625,-7.78125c-0.6875,-1.29297 -1.64453,-2.10547 -2.78125,-2.375c-0.36719,-0.08594 -0.75391,-0.13281 -1.125,-0.125zM24.21875,27c-3.19922,0 -5.21875,2.37891 -7.34375,4.90625c-0.69922,0.83594 -1.41016,1.69531 -2.21875,2.53125c-0.97266,1.01172 -1.98047,1.78516 -2.84375,2.46875c-2.05078,1.62109 -3.8125,3.03516 -3.8125,6.25c0,2.90625 2.20313,5.84375 6.40625,5.84375c2.32031,0 4,-0.50781 5.625,-1c1.44141,-0.4375 2.80078,-0.84375 4.53125,-0.84375c1.88672,0 3.58984,0.30859 5.25,0.625c1.62109,0.30859 3.30859,0.65625 5.09375,0.65625c4.70703,0 7.09375,-1.95312 7.09375,-5.75c0,-2.90234 -2.48828,-3.99609 -4.6875,-4.96875c-1.45312,-0.64453 -2.94922,-1.3125 -3.875,-2.4375c-0.76562,-0.93359 -1.45312,-1.91016 -2.09375,-2.875c-1.84766,-2.77734 -3.56641,-5.40625 -7.125,-5.40625z"></path></g></g></g></svg>